<?xml version="1.0" standalone="no"?>
<!DOCTYPE svg PUBLIC "-//W3C//DTD SVG 20010904//EN"
 "http://www.w3.org/TR/2001/REC-SVG-20010904/DTD/svg10.dtd">
<svg version="1.0" xmlns="http://www.w3.org/2000/svg"
 width="512.000000pt" height="512.000000pt" viewBox="0 0 512.000000 512.000000"
 preserveAspectRatio="xMidYMid meet">

<g transform="translate(0.000000,512.000000) scale(0.100000,-0.100000)"
fill="#000000" stroke="none">
<path d="M920 4940 c-20 -20 -20 -33 -20 -775 l0 -755 -132 0 -132 0 -238
-238 c-196 -196 -238 -243 -238 -266 0 -39 15 -61 50 -76 26 -11 34 -10 57 6
15 10 117 109 227 221 l199 203 103 0 104 0 0 -1319 0 -1319 -100 -4 c-140 -4
-134 5 -138 -221 -3 -174 -2 -184 18 -210 l21 -27 420 0 c406 0 420 1 439 20
19 19 20 33 20 205 0 184 0 186 -25 210 -22 23 -32 25 -115 25 l-90 0 0 305 0
305 258 0 c250 0 258 -1 270 -21 11 -18 11 -24 -2 -38 -8 -9 -22 -33 -31 -54
-49 -117 32 -268 161 -297 21 -5 90 -10 152 -10 l112 0 0 -100 0 -100 -105 0
c-99 0 -107 -2 -130 -25 -25 -24 -25 -26 -25 -205 0 -179 0 -181 25 -205 l24
-25 504 0 c482 0 506 1 528 19 24 19 24 22 24 211 0 239 6 230 -151 230 l-104
0 0 100 0 100 116 0 c141 0 191 12 244 57 85 73 108 186 56 279 -20 35 -23 50
-15 65 9 18 24 19 249 19 l240 0 0 -305 0 -305 -89 0 c-74 0 -92 -3 -115 -21
l-26 -20 0 -190 c0 -176 1 -190 20 -209 19 -19 33 -20 440 -20 407 0 421 1
440 20 19 19 20 33 20 209 l0 190 -26 20 c-23 18 -41 21 -115 21 l-89 0 0
1320 0 1320 109 0 108 0 199 -203 c110 -112 212 -211 227 -221 23 -16 31 -17
57 -6 35 15 50 37 50 76 0 22 -44 71 -237 266 l-237 238 -138 0 -138 0 0 749
c0 742 0 749 -21 775 l-20 26 -1615 0 c-1601 0 -1614 0 -1634 -20z m280 -240
l0 -110 -75 0 -75 0 0 110 0 110 75 0 75 0 0 -110z m2550 0 l0 -110 -1200 0
-1200 0 0 110 0 110 1200 0 1200 0 0 -110z m310 0 l0 -110 -75 0 -75 0 0 110
0 110 75 0 75 0 0 -110z m-2862 -782 l-3 -513 -72 -3 -73 -3 0 516 0 515 75 0
75 0 -2 -512z m812 -3 l0 -515 -330 0 -330 0 0 515 0 515 330 0 330 0 0 -515z
m470 165 c0 -311 -2 -350 -16 -350 -8 0 -39 -24 -68 -52 -37 -38 -56 -66 -65
-101 -13 -45 -11 -113 4 -149 6 -16 -1 -18 -79 -18 l-86 0 0 510 0 510 155 0
155 0 0 -350z m490 -165 l0 -515 -100 0 c-55 0 -100 2 -100 4 0 2 4 27 10 55
19 101 -26 205 -110 253 l-40 23 0 348 0 347 170 0 170 0 0 -515z m788 3 l-3
-513 -315 0 -315 0 -3 500 c-1 275 0 506 3 513 3 9 77 12 320 12 l315 0 -2
-512z m302 -3 l0 -515 -75 0 -75 0 0 515 0 515 75 0 75 0 0 -515z m-1469 -326
c54 -28 53 -116 -2 -144 -40 -21 -66 -19 -94 10 -67 66 14 178 96 134z m-1391
-1649 l0 -1320 -75 0 -75 0 0 1320 0 1320 75 0 75 0 0 -1320z m810 771 l0
-549 -32 -11 c-113 -39 -178 -181 -133 -288 9 -21 23 -45 32 -55 15 -17 15
-20 -2 -38 -17 -19 -31 -20 -272 -20 l-253 0 0 755 0 755 330 0 330 0 0 -549z
m470 4 l0 -545 -157 0 -158 0 3 545 2 545 155 0 155 0 0 -545z m492 -5 l3
-550 -167 0 -168 0 0 550 0 550 165 0 165 0 2 -550z m786 -202 l-3 -753 -231
-3 c-222 -2 -231 -2 -249 18 -16 17 -17 24 -7 38 85 117 33 285 -103 337 l-45
18 0 548 0 549 320 0 320 0 -2 -752z m302 -568 l0 -1320 -75 0 -75 0 0 1320 0
1320 75 0 75 0 0 -1320z m-925 55 c31 -30 32 -71 3 -102 l-21 -23 -548 0 -548
0 -20 26 c-28 35 -26 69 4 99 l24 25 541 0 541 0 24 -25z m6 -304 c25 -30 24
-76 -1 -101 -20 -20 -33 -20 -569 -20 l-550 0 -20 26 c-33 42 -23 96 22 114
12 5 262 8 560 7 l539 -2 19 -24z m-1295 -113 c3 -13 15 -35 26 -51 19 -27 19
-27 -1 -52 -11 -14 -23 -39 -26 -55 l-7 -30 -239 0 -239 0 0 105 0 105 239 0
240 0 7 -22z m1914 -83 l0 -105 -224 0 -224 0 -27 53 -27 54 21 39 c12 21 21
44 21 51 0 10 51 13 230 13 l230 0 0 -105z m-620 -95 c25 -25 26 -71 1 -101
l-19 -24 -552 0 -552 0 -19 24 c-25 30 -24 76 1 101 20 20 33 20 570 20 537 0
550 0 570 -20z m-10 -300 c24 -24 27 -77 6 -106 -14 -18 -33 -19 -552 -22
-373 -2 -547 1 -565 8 -25 11 -49 46 -49 74 0 7 9 25 21 40 l20 26 550 0 c536
0 549 0 569 -20z m-420 -380 l0 -100 -145 0 -145 0 0 100 0 100 145 0 145 0 0
-100z m-1280 -330 l0 -80 -310 0 -310 0 0 73 c0 41 3 77 7 80 3 4 143 7 310 7
l303 0 0 -80z m1540 0 l0 -80 -405 0 -405 0 0 80 0 80 405 0 405 0 0 -80z
m1320 0 l0 -80 -310 0 -310 0 0 73 c0 41 3 77 7 80 3 4 143 7 310 7 l303 0 0
-80z"/>
</g>
</svg>
