<?xml version="1.0" standalone="no"?>
<!DOCTYPE svg PUBLIC "-//W3C//DTD SVG 20010904//EN"
 "http://www.w3.org/TR/2001/REC-SVG-20010904/DTD/svg10.dtd">
<svg version="1.0" xmlns="http://www.w3.org/2000/svg"
 width="512.000000pt" height="512.000000pt" viewBox="0 0 512.000000 512.000000"
 preserveAspectRatio="xMidYMid meet">

<g transform="translate(0.000000,512.000000) scale(0.100000,-0.100000)"
fill="#000000" stroke="none">
<path d="M1877 5105 c-59 -22 -114 -71 -139 -125 -19 -41 -26 -48 -43 -42 -11
4 -67 7 -125 7 -116 0 -146 -10 -208 -69 -62 -58 -76 -97 -80 -233 l-4 -121
-117 -4 c-103 -3 -120 -6 -149 -26 -58 -42 -72 -85 -72 -223 0 -142 15 -187
77 -229 32 -22 49 -25 149 -28 l112 -4 3 -121 c4 -111 6 -126 31 -168 32 -54
77 -95 128 -117 39 -16 182 -22 241 -9 35 7 37 6 47 -22 17 -47 88 -118 140
-138 69 -27 222 -25 282 3 56 26 107 76 131 129 16 34 19 68 19 243 l0 202
260 0 260 0 0 -202 c0 -227 6 -253 71 -317 57 -58 110 -76 219 -76 55 0 111 6
134 14 51 18 118 80 141 131 18 39 19 40 54 33 59 -13 203 -7 241 9 51 22 96
63 128 117 25 42 27 56 31 169 l3 122 102 0 c127 0 177 21 213 90 20 38 23 57
23 167 0 140 -14 183 -72 225 -29 20 -46 23 -149 26 l-117 4 -4 121 c-4 136
-18 175 -80 233 -62 59 -92 69 -208 69 -58 0 -114 -3 -125 -8 -18 -6 -23 -1
-34 30 -18 50 -91 118 -148 137 -28 10 -80 16 -129 16 -131 0 -208 -38 -261
-128 -28 -46 -28 -50 -33 -257 l-5 -210 -255 0 -255 0 -5 210 c-5 207 -5 211
-33 257 -54 92 -130 128 -266 127 -47 0 -103 -7 -124 -14z m212 -170 c16 -8
31 -22 35 -30 3 -9 6 -299 6 -644 l0 -628 -26 -24 c-22 -21 -35 -24 -99 -24
-64 0 -77 3 -99 24 l-26 24 0 632 c0 665 -1 648 45 673 29 16 131 14 164 -3z
m1110 0 c16 -8 31 -22 35 -30 3 -9 6 -299 6 -644 l0 -628 -26 -24 c-22 -21
-35 -24 -99 -24 -64 0 -77 3 -99 24 l-26 24 0 632 c0 665 -1 648 45 673 29 16
131 14 164 -3z m-1517 -183 l23 -23 3 -449 c3 -506 4 -500 -66 -519 -76 -22
-159 -4 -181 37 -7 14 -11 168 -11 472 l0 452 30 30 c30 29 33 30 105 26 61
-3 79 -7 97 -26z m1959 -1 l29 -29 0 -452 c0 -304 -4 -458 -11 -472 -22 -41
-105 -59 -181 -37 -69 18 -68 14 -68 506 0 331 3 444 13 463 18 36 53 50 125
50 57 0 67 -3 93 -29z m-2361 -486 l0 -85 -85 0 -85 0 0 85 0 85 85 0 85 0 0
-85z m1540 0 l0 -85 -260 0 -260 0 0 85 0 85 260 0 260 0 0 -85z m1190 0 l0
-85 -85 0 -85 0 0 85 0 85 85 0 85 0 0 -85z"/>
<path d="M1090 3389 c-215 -56 -388 -193 -489 -388 -59 -113 -81 -204 -88
-356 -6 -152 7 -228 61 -333 19 -37 37 -79 40 -94 10 -46 69 -111 123 -138 45
-22 54 -32 74 -80 32 -77 64 -127 117 -182 25 -26 44 -49 41 -51 -2 -2 -31
-11 -64 -21 -254 -77 -488 -291 -584 -534 -48 -124 -321 -1005 -321 -1037 1
-42 33 -108 65 -133 47 -37 90 -44 271 -40 231 4 222 -2 341 230 l88 173 5
-145 c6 -169 17 -199 89 -237 l44 -23 461 0 c459 0 462 0 506 23 30 14 53 36
67 62 23 40 23 43 23 493 0 355 3 452 13 452 6 0 163 11 347 25 184 13 336 23
338 20 2 -2 -57 -198 -132 -435 -75 -238 -136 -446 -136 -464 1 -43 32 -108
65 -134 47 -37 90 -44 271 -40 231 4 222 -2 341 230 l88 173 5 -145 c6 -170
18 -201 90 -237 44 -23 47 -23 506 -23 l461 0 44 23 c72 38 83 68 89 237 l5
145 88 -173 c119 -232 110 -226 341 -230 181 -4 224 3 271 40 33 26 64 91 65
134 0 17 -60 222 -134 455 -73 233 -141 449 -150 481 -84 294 -333 547 -621
634 -33 10 -62 19 -64 21 -2 1 21 29 51 61 34 38 68 89 93 143 36 78 43 86 89
109 53 27 112 93 122 138 4 15 24 62 44 104 50 101 64 190 57 338 -10 183 -58
320 -163 459 -94 126 -256 230 -418 271 -115 29 -427 29 -542 0 -293 -74 -517
-313 -570 -610 -16 -89 -18 -246 -4 -321 5 -30 25 -85 43 -124 19 -38 42 -92
52 -119 21 -58 87 -128 138 -147 29 -10 39 -21 53 -58 21 -57 67 -135 107
-181 l31 -35 -387 -3 c-213 -1 -561 -1 -774 0 l-387 3 31 35 c40 46 86 124
107 181 14 37 24 48 53 58 51 19 117 89 138 147 10 27 33 81 52 119 18 39 38
94 43 124 14 75 12 232 -4 321 -55 301 -273 534 -570 610 -113 29 -435 28
-546 -1z m557 -178 c247 -89 402 -320 403 -598 0 -114 -1 -116 -60 -84 -40 21
-52 34 -66 71 -65 176 -237 326 -424 371 -70 17 -200 17 -270 0 -185 -44 -359
-196 -418 -364 -12 -34 -25 -53 -42 -60 -14 -6 -37 -19 -52 -29 l-27 -19 -7
27 c-11 42 3 223 22 284 59 198 208 348 403 407 70 21 91 23 276 20 177 -3
207 -6 262 -26z m2338 14 c208 -54 367 -208 429 -415 18 -60 33 -242 23 -283
l-7 -25 -48 26 c-44 23 -52 33 -87 111 -74 161 -232 291 -405 332 -70 17 -200
17 -270 0 -185 -44 -347 -185 -420 -363 -19 -47 -29 -60 -56 -68 -18 -6 -38
-18 -45 -26 -20 -25 -29 3 -29 96 0 293 167 529 428 606 67 20 100 23 252 23
128 1 192 -3 235 -14z m-2478 -435 c64 -22 127 -65 177 -120 39 -44 96 -152
96 -183 0 -51 38 -85 113 -101 41 -9 67 -41 67 -80 0 -48 -27 -76 -84 -87 -64
-12 -73 -21 -92 -88 -53 -183 -180 -302 -354 -333 -176 -31 -361 67 -445 235
-19 38 -35 78 -35 89 0 52 -50 98 -106 98 -37 0 -74 42 -74 84 0 42 46 86 89
86 45 0 77 33 91 92 38 164 180 299 342 327 66 11 147 4 215 -19z m2390 0
c133 -46 237 -163 274 -309 13 -52 49 -91 84 -91 55 0 94 -36 95 -88 0 -43
-37 -78 -91 -85 -54 -7 -76 -29 -89 -90 -16 -74 -65 -160 -126 -217 -208 -197
-546 -134 -670 125 -19 38 -34 76 -34 83 0 8 -7 29 -15 47 -17 35 -50 55 -91
55 -36 0 -74 42 -74 82 1 51 40 88 93 88 41 0 74 35 86 90 35 162 180 301 342
329 67 11 148 4 216 -19z m-2447 -1223 c0 -51 -4 -62 -29 -88 -38 -38 -74 -38
-112 0 -25 26 -29 37 -29 88 l0 58 85 0 85 0 0 -58z m2390 0 c0 -51 -4 -62
-29 -88 -38 -38 -74 -38 -112 0 -25 26 -29 37 -29 88 l0 58 85 0 85 0 0 -58z
m-2707 -138 c23 -47 71 -95 121 -122 65 -34 165 -31 234 8 88 48 132 129 132
241 l0 64 708 0 707 0 -35 -27 c-69 -51 -172 -168 -224 -252 l-53 -86 -434
-31 c-239 -18 -442 -35 -452 -39 -46 -19 -47 -35 -47 -540 l0 -475 -425 0
-425 0 0 305 c0 320 -4 353 -45 369 -28 10 -70 7 -90 -8 -11 -8 -94 -160 -185
-338 l-165 -323 -143 -3 c-134 -2 -143 -1 -138 15 44 149 282 902 298 943 92
240 314 426 568 474 l65 12 6 -75 c3 -42 13 -92 22 -112z m3053 148 c161 -58
305 -173 396 -317 45 -71 70 -129 103 -237 15 -48 80 -258 146 -465 65 -207
119 -379 119 -383 0 -3 -64 -4 -142 -3 l-143 3 -165 323 c-91 178 -174 330
-185 338 -20 15 -62 18 -90 8 -41 -16 -45 -49 -45 -369 l0 -305 -425 0 -425 0
0 305 c0 320 -4 353 -45 369 -30 11 -73 6 -94 -12 -12 -9 -94 -161 -184 -337
l-162 -320 -142 -3 c-79 -1 -143 0 -143 3 0 10 269 865 297 943 46 132 161
282 277 361 96 66 263 131 338 131 27 0 28 -1 28 -58 0 -112 53 -201 145 -247
56 -28 165 -27 221 2 93 49 136 121 142 234 l4 76 66 -13 c37 -7 85 -19 108
-27z"/>
</g>
</svg>
