<?xml version="1.0" standalone="no"?>
<!DOCTYPE svg PUBLIC "-//W3C//DTD SVG 20010904//EN"
 "http://www.w3.org/TR/2001/REC-SVG-20010904/DTD/svg10.dtd">
<svg version="1.0" xmlns="http://www.w3.org/2000/svg"
 width="512.000000pt" height="512.000000pt" viewBox="0 0 512.000000 512.000000"
 preserveAspectRatio="xMidYMid meet">

<g transform="translate(0.000000,512.000000) scale(0.100000,-0.100000)"
fill="#000000" stroke="none">
<path d="M2265 4836 c-97 -33 -745 -310 -793 -339 -76 -45 -165 -128 -218
-203 -121 -169 -362 -799 -467 -1219 -81 -321 -117 -589 -117 -857 0 -130 15
-344 25 -356 1 -1 26 9 56 22 77 35 122 42 142 21 10 -9 17 -21 17 -26 0 -18
-40 -49 -63 -49 -40 0 -145 -59 -182 -103 -38 -45 -65 -118 -65 -179 0 -51 44
-183 79 -233 39 -58 137 -106 228 -112 54 -4 81 -1 128 17 107 39 105 39 164
-29 105 -121 325 -287 491 -371 102 -51 232 -96 337 -116 107 -20 316 -14 408
11 128 36 287 124 396 221 59 53 102 58 107 14 4 -31 -39 -74 -150 -153 l-78
-55 58 -52 c222 -200 491 -309 776 -313 117 -2 156 10 186 58 20 32 20 49 20
779 0 621 -2 752 -14 774 -26 50 -164 134 -291 178 -108 37 -249 39 -340 5
-94 -36 -95 -36 -155 9 -75 57 -256 144 -365 176 -70 20 -119 27 -220 31 -159
6 -244 -10 -364 -67 -91 -44 -135 -75 -223 -157 -31 -29 -63 -53 -72 -53 -17
0 -46 27 -46 43 0 19 121 130 193 177 l69 45 -5 410 c-6 485 -21 659 -89 982
-20 98 -20 104 -4 147 17 45 61 87 111 106 39 15 155 14 190 -1 17 -7 57 -30
91 -51 100 -62 68 -67 516 73 95 30 128 44 133 59 4 14 -22 99 -40 127 -1 2
-35 -8 -75 -22 -84 -29 -110 -31 -148 -11 -41 21 -57 44 -92 129 -32 75 -32
78 -15 97 34 38 58 20 96 -74 38 -93 43 -94 195 -40 142 51 154 58 154 86 0
19 -221 288 -296 360 -65 62 -144 92 -249 95 -56 2 -105 -3 -130 -11z m-751
-1245 c20 -22 16 -32 -39 -110 -65 -92 -124 -221 -160 -355 -36 -136 -46 -216
-46 -371 0 -148 8 -220 43 -377 22 -103 18 -128 -22 -128 -27 0 -38 20 -61
111 -82 332 -58 684 67 973 57 132 155 276 188 276 7 0 21 -9 30 -19z m1710
-1877 c9 -8 16 -24 16 -34 0 -40 -168 -155 -320 -221 -330 -142 -657 -127
-918 43 -53 34 -63 45 -60 66 5 40 32 51 71 28 153 -92 258 -131 395 -148 228
-29 503 59 719 230 36 28 69 52 74 52 4 0 15 -7 23 -16z"/>
<path d="M3400 3841 c-160 -49 -286 -202 -298 -359 -5 -75 14 -161 50 -222 26
-44 628 -650 645 -650 21 0 608 591 637 640 116 205 38 459 -172 562 -63 31
-73 33 -172 32 -91 0 -112 -3 -161 -26 -30 -14 -72 -40 -93 -58 -26 -23 -42
-31 -50 -24 -7 5 -32 23 -56 41 -66 50 -138 73 -228 72 -42 0 -88 -4 -102 -8z"/>
</g>
</svg>
