<?xml version="1.0" standalone="no"?>
<!DOCTYPE svg PUBLIC "-//W3C//DTD SVG 20010904//EN"
 "http://www.w3.org/TR/2001/REC-SVG-20010904/DTD/svg10.dtd">
<svg version="1.0" xmlns="http://www.w3.org/2000/svg"
 width="512.000000pt" height="512.000000pt" viewBox="0 0 512.000000 512.000000"
 preserveAspectRatio="xMidYMid meet">

<g transform="translate(0.000000,512.000000) scale(0.100000,-0.100000)"
fill="#000000" stroke="none">
<path d="M848 4911 c-208 -67 -345 -286 -310 -497 37 -226 221 -384 447 -384
226 0 410 158 447 384 36 218 -112 445 -327 501 -78 20 -186 18 -257 -4z"/>
<path d="M2398 4284 c-32 -7 -88 -29 -126 -48 -220 -111 -352 -325 -352 -571
0 -111 18 -185 71 -293 76 -155 241 -287 410 -327 84 -19 235 -19 313 1 223
57 403 238 461 462 21 82 21 232 0 314 -59 226 -244 410 -468 463 -77 18 -233
18 -309 -1z m270 -393 c88 -46 136 -126 136 -226 0 -100 -48 -180 -136 -226
-134 -69 -309 6 -352 150 -20 68 -20 84 0 151 43 144 219 220 352 151z"/>
<path d="M2475 3836 c-65 -29 -105 -94 -105 -171 0 -112 76 -185 190 -185 58
0 93 15 131 57 40 43 52 72 52 128 0 72 -40 137 -105 171 -34 18 -123 18 -163
0z"/>
<path d="M458 3981 c-182 -59 -283 -193 -368 -491 -54 -189 -80 -343 -87 -515
-7 -160 10 -414 33 -495 38 -133 114 -228 220 -271 63 -26 65 -31 108 -238 44
-209 59 -381 53 -626 -7 -297 -37 -475 -127 -752 -45 -136 -47 -157 -24 -232
31 -106 138 -178 251 -169 103 8 176 59 218 153 51 113 115 351 150 559 80
469 44 986 -101 1451 -45 146 -57 243 -49 400 6 109 29 318 40 355 3 10 -24
36 -76 75 -154 113 -314 304 -329 393 -21 128 75 242 205 242 70 0 119 -31
180 -113 28 -36 65 -81 84 -99 l33 -33 -5 90 c-7 122 -35 194 -101 260 -32 32
-66 55 -92 63 -58 17 -149 14 -216 -7z"/>
<path d="M504 3761 c-82 -37 -117 -137 -76 -217 95 -187 359 -403 610 -499
262 -101 524 -125 857 -79 125 17 179 41 208 92 l20 33 -63 62 c-34 34 -76 81
-92 105 -25 37 -34 42 -56 38 -213 -44 -501 -35 -677 21 -210 66 -403 202
-514 364 -39 57 -103 99 -151 99 -14 0 -43 -9 -66 -19z"/>
<path d="M2394 2955 c-3 -6 -4 -252 -2 -546 3 -518 4 -535 24 -569 31 -53 77
-80 139 -80 66 0 112 29 143 90 l22 44 0 539 c0 509 -1 539 -17 532 -33 -12
-197 -17 -251 -7 -40 7 -55 7 -58 -3z"/>
<path d="M1491 2384 c-173 -46 -302 -191 -332 -371 -39 -239 136 -474 382
-514 224 -36 445 112 504 336 85 329 -226 637 -554 549z"/>
<path d="M2900 2325 c-63 -8 -121 -17 -127 -20 -10 -3 -13 -56 -13 -217 0
-240 -6 -266 -73 -325 -78 -68 -186 -68 -264 0 -62 55 -73 91 -73 260 l0 148
-37 -28 c-56 -43 -120 -137 -143 -210 -47 -152 -7 -274 113 -343 111 -64 46
-61 1230 -60 l1077 1 0 -53 c1 -29 7 -288 14 -575 13 -502 15 -524 36 -568 62
-129 215 -181 341 -118 60 31 112 92 129 151 13 45 -16 1388 -31 1470 -13 65
-59 128 -119 162 l-45 25 -474 5 -475 5 -33 57 c-39 66 -97 117 -175 153 -158
72 -597 113 -858 80z"/>
<path d="M1150 1235 l0 -135 1635 0 1635 0 0 135 0 135 -1635 0 -1635 0 0
-135z"/>
</g>
</svg>
