<?xml version="1.0" standalone="no"?>
<!DOCTYPE svg PUBLIC "-//W3C//DTD SVG 20010904//EN"
 "http://www.w3.org/TR/2001/REC-SVG-20010904/DTD/svg10.dtd">
<svg version="1.0" xmlns="http://www.w3.org/2000/svg"
 width="512.000000pt" height="512.000000pt" viewBox="0 0 512.000000 512.000000"
 preserveAspectRatio="xMidYMid meet">

<g transform="translate(0.000000,512.000000) scale(0.100000,-0.100000)"
fill="#000000" stroke="none">
<path d="M1420 5104 c-180 -38 -357 -177 -439 -344 -91 -187 -94 -384 -7 -567
l35 -73 -60 0 c-341 0 -653 -260 -723 -602 -14 -65 -16 -166 -16 -642 0 -383
4 -582 11 -618 19 -86 59 -158 124 -223 115 -116 260 -156 433 -119 l32 6 0
-755 c0 -526 3 -772 11 -809 19 -86 59 -158 124 -223 152 -153 378 -177 562
-59 l53 34 53 -34 c143 -92 307 -99 459 -19 113 59 200 174 227 301 8 37 11
287 11 809 l0 756 33 -7 c164 -35 307 1 423 106 59 54 116 156 133 236 7 35
11 243 11 618 0 478 -2 577 -16 642 -61 295 -291 525 -586 586 -43 9 -104 16
-137 16 l-60 0 35 73 c87 183 84 380 -7 567 -59 119 -170 230 -289 289 -139
68 -284 87 -430 55z m294 -323 c75 -37 128 -91 165 -170 22 -47 26 -70 26
-141 0 -76 -4 -93 -33 -152 -38 -77 -92 -130 -171 -167 -47 -22 -70 -26 -141
-26 -71 0 -94 4 -141 26 -79 37 -133 90 -171 167 -29 59 -33 76 -33 152 0 71
4 94 26 140 87 186 293 260 473 171z m538 -972 c171 -36 310 -175 347 -347 7
-36 11 -229 11 -598 0 -526 -1 -546 -20 -584 -23 -45 -80 -80 -131 -80 -46 0
-108 39 -130 82 -18 35 -19 65 -19 468 0 412 -1 433 -20 470 -23 45 -80 80
-130 80 -50 0 -107 -35 -130 -80 -20 -39 -20 -56 -20 -1420 0 -1364 0 -1381
-20 -1420 -23 -45 -80 -80 -131 -80 -46 0 -108 39 -130 82 -18 35 -19 68 -19
668 0 612 -1 632 -20 670 -23 45 -80 80 -130 80 -50 0 -107 -35 -130 -80 -19
-38 -20 -58 -20 -670 0 -612 -1 -632 -20 -670 -23 -45 -80 -80 -131 -80 -46 0
-108 39 -130 82 -18 36 -19 82 -19 1418 0 1364 0 1381 -20 1420 -23 45 -80 80
-130 80 -50 0 -107 -35 -130 -80 -19 -37 -20 -58 -20 -470 0 -412 -1 -433 -20
-470 -23 -45 -80 -80 -131 -80 -46 0 -108 39 -130 82 -18 35 -19 67 -19 582 0
362 4 563 11 598 18 87 58 158 123 223 64 64 127 100 211 121 67 17 1318 19
1397 3z"/>
<path d="M2688 5099 c-43 -22 -78 -81 -78 -129 0 -50 35 -107 80 -130 37 -19
58 -20 380 -20 l340 0 0 -2350 c0 -2336 0 -2351 20 -2390 13 -26 34 -47 60
-60 38 -19 58 -20 670 -20 612 0 632 1 670 20 26 13 47 34 60 60 20 39 20 53
20 2480 0 2427 0 2441 -20 2480 -13 26 -34 47 -60 60 -39 20 -56 20 -1072 20
-1009 -1 -1034 -1 -1070 -21z m1922 -2539 l0 -2260 -450 0 -450 0 0 155 0 155
90 0 c112 0 159 20 190 80 25 50 25 90 0 140 -31 60 -78 80 -190 80 l-90 0 0
150 0 150 190 0 c221 0 254 9 290 80 25 50 25 90 0 140 -36 71 -69 80 -290 80
l-190 0 0 150 0 150 90 0 c112 0 159 20 190 80 25 50 25 90 0 140 -31 60 -78
80 -190 80 l-90 0 0 150 0 150 190 0 c221 0 254 9 290 80 25 50 25 90 0 140
-36 71 -69 80 -290 80 l-190 0 0 150 0 150 90 0 c71 0 99 4 130 20 45 23 80
80 80 130 0 50 -35 107 -80 130 -31 16 -59 20 -130 20 l-90 0 0 150 0 150 190
0 c171 0 195 2 230 20 45 23 80 80 80 130 0 50 -35 107 -80 130 -35 18 -59 20
-230 20 l-190 0 0 150 0 150 90 0 c71 0 99 4 130 20 45 23 80 80 80 130 0 50
-35 107 -80 130 -31 16 -59 20 -130 20 l-90 0 0 155 0 155 450 0 450 0 0
-2260z"/>
</g>
</svg>
