<?xml version="1.0" standalone="no"?>
<!DOCTYPE svg PUBLIC "-//W3C//DTD SVG 20010904//EN"
 "http://www.w3.org/TR/2001/REC-SVG-20010904/DTD/svg10.dtd">
<svg version="1.0" xmlns="http://www.w3.org/2000/svg"
 width="512.000000pt" height="512.000000pt" viewBox="0 0 512.000000 512.000000"
 preserveAspectRatio="xMidYMid meet">

<g transform="translate(0.000000,512.000000) scale(0.100000,-0.100000)"
fill="#000000" stroke="none">
<path d="M260 4400 l0 -90 289 0 289 0 22 -90 22 -90 1678 0 1678 0 22 90 22
90 289 0 289 0 0 90 0 90 -2300 0 -2300 0 0 -90z"/>
<path d="M1090 3755 l0 -185 90 0 90 0 0 185 0 185 -90 0 -90 0 0 -185z"/>
<path d="M3850 3755 l0 -185 90 0 90 0 0 185 0 185 -90 0 -90 0 0 -185z"/>
<path d="M706 3368 c-21 -19 -82 -206 -362 -1102 -209 -673 -338 -1101 -341
-1137 -17 -180 87 -364 251 -444 39 -19 95 -40 125 -45 74 -14 4288 -14 4362
0 30 5 86 26 125 45 164 80 268 264 251 444 -3 36 -132 464 -341 1137 -280
896 -341 1083 -362 1102 l-25 22 -1829 0 -1829 0 -25 -22z m2128 -287 c491
-132 826 -564 826 -1064 0 -314 -118 -590 -343 -804 -136 -129 -301 -221 -484
-270 -88 -24 -115 -27 -273 -27 -158 0 -185 3 -275 27 -367 99 -659 375 -774
732 -81 251 -64 558 43 790 128 278 369 496 653 591 137 46 194 53 378 50 135
-3 186 -8 249 -25z"/>
<path d="M2330 2901 c-79 -22 -140 -47 -140 -58 1 -4 7 -19 15 -33 8 -14 14
-28 15 -32 0 -9 -134 -88 -149 -88 -6 0 -17 14 -26 30 -9 17 -21 30 -27 30
-13 0 -198 -183 -198 -196 0 -5 16 -18 35 -28 l35 -19 -33 -57 c-17 -31 -39
-67 -47 -79 l-15 -23 -37 21 -36 22 -22 -57 c-25 -69 -50 -169 -50 -206 0 -26
3 -28 40 -28 l40 0 0 -90 0 -90 -41 0 -42 0 7 -57 c7 -57 50 -201 66 -217 5
-5 23 0 42 12 l34 21 47 -80 47 -80 -35 -20 c-19 -12 -35 -24 -35 -29 0 -4 28
-37 61 -74 369 -402 989 -402 1357 -1 34 37 62 71 62 76 0 4 -15 17 -34 29
l-35 21 46 79 47 79 34 -21 c19 -12 37 -17 42 -12 16 16 59 160 66 217 l7 57
-42 0 -41 0 0 90 0 90 40 0 c37 0 40 2 40 28 0 37 -25 137 -50 205 l-22 58
-33 -21 c-18 -11 -35 -20 -38 -20 -4 0 -26 35 -51 77 l-45 78 35 19 c18 11 34
24 34 29 0 14 -185 197 -198 197 -6 0 -18 -13 -27 -30 -9 -16 -20 -30 -26 -30
-12 0 -149 80 -149 87 0 2 7 17 15 34 9 16 13 34 10 39 -9 14 -163 61 -222 67
l-53 6 0 -42 0 -41 -90 0 -90 0 0 40 c0 40 0 40 -37 39 -21 0 -67 -8 -103 -18z
m695 -431 l60 -60 -138 -138 -138 -138 15 -58 c45 -172 -83 -335 -264 -336
-155 0 -274 120 -273 276 1 177 170 307 340 261 l52 -14 133 134 c73 73 137
133 143 133 6 0 37 -27 70 -60z"/>
<path d="M2496 2074 c-37 -37 -35 -86 3 -125 20 -20 39 -29 61 -29 45 0 90 47
90 93 0 48 -40 87 -90 87 -27 0 -45 -7 -64 -26z"/>
</g>
</svg>
