<?xml version="1.0" standalone="no"?>
<!DOCTYPE svg PUBLIC "-//W3C//DTD SVG 20010904//EN"
 "http://www.w3.org/TR/2001/REC-SVG-20010904/DTD/svg10.dtd">
<svg version="1.0" xmlns="http://www.w3.org/2000/svg"
 width="512.000000pt" height="512.000000pt" viewBox="0 0 512.000000 512.000000"
 preserveAspectRatio="xMidYMid meet">

<g transform="translate(0.000000,512.000000) scale(0.100000,-0.100000)"
fill="#000000" stroke="none">
<path d="M2550 4346 c-78 -17 -131 -48 -183 -106 -66 -73 -90 -144 -85 -245 8
-135 76 -237 196 -293 48 -23 71 -27 142 -27 71 0 94 4 141 26 69 33 129 91
166 161 25 47 28 64 28 148 0 84 -3 102 -28 151 -30 62 -93 126 -154 157 -32
17 -142 44 -162 41 -3 0 -31 -6 -61 -13z"/>
<path d="M705 4041 c-49 -23 -99 -74 -119 -123 -21 -50 -20 -134 3 -184 34
-75 128 -134 214 -134 42 0 111 30 145 63 64 61 88 136 71 217 -30 138 -188
220 -314 161z"/>
<path d="M4171 4034 c-183 -92 -163 -353 33 -420 108 -37 236 21 280 128 9 21
16 61 16 90 -1 171 -176 278 -329 202z"/>
<path d="M2196 3625 c-33 -13 -78 -43 -102 -66 -24 -24 -42 -44 -41 -45 1 -2
44 7 95 18 89 19 95 19 138 3 66 -25 99 -73 99 -146 0 -64 -20 -101 -72 -132
-17 -9 -113 -36 -215 -58 l-185 -42 -12 -66 c-34 -182 -30 -489 9 -614 25 -82
80 -145 157 -182 l58 -28 377 8 376 7 10 -49 c6 -26 36 -180 67 -341 51 -260
61 -297 87 -333 106 -146 338 -72 338 108 0 27 -38 236 -83 466 -92 457 -98
476 -174 513 -35 17 -59 19 -293 16 -140 -1 -288 -5 -329 -8 l-74 -6 6 98 c7
96 26 231 48 342 l11 53 80 -108 c45 -59 88 -113 97 -120 28 -21 76 -25 112
-10 46 20 540 410 561 445 50 78 -9 182 -102 182 -44 0 -50 -4 -264 -173 -105
-82 -196 -154 -203 -159 -8 -7 -42 31 -114 129 -205 277 -208 281 -252 302
-59 29 -136 27 -211 -4z"/>
<path d="M505 3567 c-27 -13 -59 -34 -70 -47 l-20 -22 45 8 c86 16 120 11 151
-24 47 -52 32 -136 -28 -161 -23 -9 -241 -61 -257 -61 -15 0 -28 -159 -23
-284 6 -193 31 -252 122 -295 46 -21 53 -22 296 -15 137 4 249 5 249 2 0 -33
94 -458 105 -475 24 -36 62 -56 106 -56 48 0 86 25 113 74 l19 35 -58 298
c-61 310 -73 346 -125 374 -20 11 -71 12 -242 7 l-218 -6 0 42 c0 50 29 248
39 266 4 9 24 -11 59 -58 57 -75 86 -95 125 -85 23 5 297 216 365 279 41 39
44 86 7 122 -45 46 -63 39 -230 -93 -66 -52 -125 -99 -132 -104 -8 -7 -41 30
-111 124 -54 73 -108 142 -120 152 -35 30 -108 31 -167 3z"/>
<path d="M4004 3579 c-16 -5 -48 -25 -70 -44 l-39 -36 40 8 c22 4 59 7 83 7
54 0 91 -34 99 -91 4 -34 1 -45 -23 -72 -30 -33 -52 -41 -216 -76 -87 -19 -82
-10 -97 -150 -7 -59 -7 -127 -1 -198 13 -155 45 -215 134 -252 33 -14 70 -15
285 -9 l248 7 43 -219 c23 -120 49 -233 57 -249 18 -40 65 -67 115 -67 72 1
120 51 119 124 0 62 -108 587 -126 614 -35 53 -61 58 -292 50 l-213 -7 0 48
c0 57 31 273 39 273 3 0 29 -32 56 -70 52 -72 88 -97 127 -86 25 6 339 251
376 292 29 34 29 78 -3 109 -45 45 -68 36 -230 -91 -80 -63 -148 -114 -149
-112 -2 2 -49 65 -105 141 -122 166 -155 186 -257 156z"/>
<path d="M1944 3451 c-138 -32 -266 -64 -284 -71 -23 -9 -38 -26 -50 -54 -19
-43 -180 -671 -180 -701 0 -31 30 -81 59 -98 16 -9 48 -17 71 -17 34 0 48 6
74 33 30 30 38 53 106 327 40 162 74 297 76 298 1 2 92 23 201 48 272 60 280
62 308 96 30 35 34 110 9 146 -21 30 -66 52 -106 51 -18 0 -146 -26 -284 -58z"/>
<path d="M350 3455 c-212 -48 -213 -49 -228 -78 -13 -25 -122 -457 -122 -482
0 -9 14 -30 30 -47 26 -25 36 -29 63 -24 18 3 39 15 48 26 9 10 38 106 64 212
26 106 50 196 54 200 3 4 76 22 161 41 132 30 158 39 177 61 13 15 23 38 23
50 0 31 -34 72 -63 78 -12 2 -106 -14 -207 -37z"/>
<path d="M3820 3454 c-148 -33 -199 -48 -211 -63 -25 -30 -134 -479 -125 -514
10 -39 64 -64 104 -48 16 7 34 22 40 34 7 12 32 105 57 207 26 102 49 188 53
192 4 3 76 23 161 42 85 20 162 43 172 52 26 23 31 60 15 93 -28 52 -51 53
-266 5z"/>
<path d="M470 2632 c0 -5 22 -72 49 -148 l49 -139 -69 -260 c-37 -143 -69
-269 -70 -280 -4 -59 2 -79 37 -111 30 -29 42 -34 85 -34 42 0 55 5 84 33 33
31 38 46 117 346 l82 314 -49 144 -49 143 -133 0 c-73 0 -133 -4 -133 -8z"/>
<path d="M3993 2492 l51 -148 -73 -281 c-67 -255 -72 -284 -62 -316 28 -85
134 -117 200 -61 35 29 38 37 136 413 l67 254 -31 91 c-17 51 -40 114 -50 141
l-19 50 -135 3 -136 3 52 -149z"/>
<path d="M2248 2233 c-65 -2 -118 -7 -118 -11 0 -4 34 -101 75 -217 l74 -210
-104 -398 c-107 -407 -119 -472 -91 -525 34 -65 99 -105 171 -105 90 0 161 58
188 155 83 288 221 842 221 883 0 37 -18 102 -69 243 l-69 192 -80 -2 c-45 -1
-134 -4 -198 -5z"/>
<path d="M905 2056 c-14 -10 -23 -46 -41 -162 -29 -186 -30 -210 -5 -224 13
-6 152 -10 383 -10 295 0 368 3 383 14 19 14 19 17 -4 187 -19 132 -29 177
-43 191 -17 17 -41 18 -336 18 -252 0 -322 -3 -337 -14z"/>
<path d="M4382 2053 c-17 -15 -25 -47 -45 -183 -22 -144 -23 -168 -11 -187
l14 -23 375 0 c326 0 376 2 389 16 20 19 20 8 -8 197 -17 111 -29 164 -41 178
-17 18 -34 19 -335 19 -288 0 -320 -2 -338 -17z"/>
<path d="M2788 1369 c-10 -5 -22 -18 -27 -28 -6 -9 -26 -128 -47 -264 -34
-233 -35 -248 -20 -272 l16 -25 570 0 c628 0 600 -3 600 63 0 18 -16 136 -35
262 -32 215 -36 231 -60 253 l-26 22 -477 0 c-303 0 -483 -4 -494 -11z"/>
</g>
</svg>
