<?xml version="1.0" standalone="no"?>
<!DOCTYPE svg PUBLIC "-//W3C//DTD SVG 20010904//EN"
 "http://www.w3.org/TR/2001/REC-SVG-20010904/DTD/svg10.dtd">
<svg version="1.0" xmlns="http://www.w3.org/2000/svg"
 width="512.000000pt" height="512.000000pt" viewBox="0 0 512.000000 512.000000"
 preserveAspectRatio="xMidYMid meet">

<g transform="translate(0.000000,512.000000) scale(0.100000,-0.100000)"
fill="#000000" stroke="none">
<path d="M2624 5065 c-12 -8 -32 -38 -45 -67 -20 -44 -24 -70 -24 -148 0 -101
13 -140 69 -207 l24 -29 -39 -79 c-69 -139 -85 -271 -49 -409 35 -137 120
-267 229 -349 l59 -44 -97 -152 -96 -151 -80 2 -80 3 -95 137 c-116 167 -132
184 -195 214 -58 27 -147 31 -208 10 -125 -45 -202 -195 -165 -323 10 -33 60
-114 148 -239 260 -368 232 -347 473 -352 l167 -4 0 -146 0 -146 -194 -195
c-258 -262 -239 -208 -244 -676 l-4 -360 -66 -30 c-146 -66 -244 -186 -276
-337 l-6 -28 -154 0 -155 0 -6 58 c-29 271 -186 449 -447 506 l-28 6 0 675 c0
371 2 675 5 675 2 0 50 -24 105 -52 94 -49 106 -53 168 -52 114 1 207 58 256
156 50 100 26 232 -55 303 -42 37 -1100 638 -1153 655 -53 17 -161 8 -211 -18
-47 -24 -105 -83 -131 -132 -27 -52 -26 -172 3 -225 34 -63 73 -93 261 -201
l177 -100 5 -388 5 -388 28 -24 c34 -29 56 -30 91 -3 l26 20 0 346 c0 208 4
343 9 341 5 -1 66 -34 135 -73 l126 -70 0 -723 0 -723 -132 3 -133 3 -5 303
c-5 286 -6 304 -24 318 -29 21 -80 18 -102 -7 -18 -20 -19 -42 -22 -319 l-3
-299 -159 -3 c-142 -3 -162 -5 -186 -24 -40 -29 -64 -65 -74 -110 -12 -51 -12
-1167 0 -1218 12 -54 38 -87 90 -113 l44 -23 2258 0 c1605 0 2272 3 2310 11
132 27 265 131 321 251 121 256 -10 555 -280 638 -55 17 -93 20 -239 20 -96 0
-174 2 -174 5 0 3 46 128 101 278 106 284 118 337 90 391 -8 15 -29 35 -45 46
-36 21 -306 119 -581 210 -104 35 -191 64 -193 65 -1 1 -29 136 -61 299 l-58
297 39 202 c22 111 41 203 43 205 2 2 17 1 34 -3 l29 -6 4 -192 c3 -191 3
-192 32 -245 54 -97 147 -148 254 -140 72 5 126 31 179 85 71 74 75 96 71 450
-3 347 -3 346 -86 426 -42 41 -104 66 -440 178 l-152 51 -60 84 c-33 46 -60
87 -60 90 0 3 23 27 52 52 141 127 220 339 219 592 0 73 -5 137 -16 175 -50
192 -178 327 -379 402 -28 11 -105 18 -246 24 -217 8 -266 17 -397 69 -85 34
-100 36 -129 15z m137 -181 c93 -32 189 -46 379 -53 191 -7 196 -8 261 -39 95
-46 152 -100 194 -185 38 -78 60 -203 47 -266 l-7 -34 -92 85 c-139 130 -212
164 -391 183 -197 20 -394 110 -436 199 -17 36 -22 126 -7 126 5 0 28 -7 52
-16z m241 -434 c46 -10 120 -24 166 -29 96 -12 157 -36 219 -87 50 -41 118
-133 163 -222 l32 -63 -28 -47 c-117 -200 -380 -269 -595 -156 -83 44 -184
146 -223 227 -59 120 -58 263 4 392 l30 63 75 -29 c41 -16 112 -38 157 -49z
m-2649 -717 c155 -80 1057 -600 1075 -619 41 -46 23 -131 -35 -169 -17 -11
-46 -19 -73 -19 -41 0 -99 31 -589 309 -563 320 -581 332 -581 393 0 91 115
151 203 105z m2739 -86 c72 -10 193 -2 264 19 17 4 28 -4 58 -44 20 -27 36
-52 36 -55 0 -3 -10 -7 -23 -11 -37 -9 -100 -70 -127 -122 -34 -66 -35 -179
-3 -239 37 -70 100 -119 192 -150 79 -26 83 -28 78 -54 -3 -14 -20 -101 -38
-193 l-33 -168 -363 0 -363 0 0 351 0 352 108 168 c78 123 111 168 122 163 8
-3 50 -10 92 -17z m-935 -2 c12 -9 69 -84 126 -168 58 -83 115 -161 127 -172
18 -16 39 -21 116 -23 l94 -4 0 -124 0 -124 -149 0 c-127 0 -152 3 -169 18
-37 32 -316 437 -325 472 -12 44 10 97 51 122 34 22 101 23 129 3z m1678 -307
c192 -66 278 -100 300 -119 l30 -27 3 -289 c3 -251 1 -292 -13 -319 -32 -60
-108 -81 -166 -47 -53 31 -59 60 -59 281 0 183 -2 201 -20 224 -15 19 -66 41
-221 93 -222 75 -256 95 -266 157 -11 73 42 138 112 138 17 0 151 -41 300 -92z
m-375 -866 c0 -22 -77 -133 -128 -185 -72 -74 -164 -134 -422 -277 -113 -62
-217 -122 -232 -133 -53 -39 -58 -66 -58 -296 l0 -211 -146 0 -146 0 4 343 c3
328 4 344 25 382 11 22 100 118 196 213 l174 172 367 0 c201 0 366 -4 366 -8z
m104 -352 c38 -204 51 -244 86 -273 18 -16 101 -49 217 -87 103 -35 195 -66
204 -71 15 -8 11 -24 -35 -144 -29 -74 -55 -137 -58 -140 -3 -3 -30 3 -59 14
-30 11 -180 63 -334 116 -153 52 -290 102 -303 111 -15 10 -50 70 -94 161 -38
80 -68 146 -66 147 2 2 39 24 83 50 127 77 274 202 308 262 5 9 13 12 17 7 4
-4 20 -73 34 -153z m-506 -388 c45 -94 85 -162 108 -185 42 -42 71 -53 475
-191 l286 -98 6 -91 c4 -51 13 -114 22 -142 8 -27 15 -53 15 -57 0 -5 -92 -8
-205 -8 -205 0 -206 0 -230 -25 -39 -38 -32 -86 16 -110 24 -13 117 -15 597
-15 643 0 624 2 712 -77 77 -69 105 -130 105 -228 0 -60 -5 -91 -22 -126 -30
-66 -86 -124 -151 -156 l-57 -28 -1607 -3 -1608 -2 0 120 0 120 1587 0 1587 0
23 22 c28 26 30 67 4 99 l-19 24 -1591 3 -1591 2 0 115 0 115 858 0 c914 0
894 -1 918 49 13 25 2 75 -19 89 -7 4 -122 9 -257 12 l-245 5 0 399 0 398 100
58 c55 32 103 59 106 59 3 1 38 -66 77 -147z m1283 -138 l98 -36 -18 -46 c-10
-26 -60 -161 -112 -299 -83 -227 -95 -253 -115 -253 -12 0 -30 3 -39 6 -35 14
-75 136 -75 230 0 31 20 97 66 217 87 228 83 217 90 217 4 0 51 -16 105 -36z
m-3208 -246 c73 -35 160 -117 192 -182 39 -82 45 -155 45 -578 l0 -398 -584 0
c-523 0 -584 2 -590 16 -8 21 -8 1138 0 1159 6 14 48 16 443 13 l436 -3 58
-27z m1487 -258 l0 -130 -315 0 c-354 0 -333 -5 -296 75 33 73 125 148 209
171 29 8 115 13 225 13 l177 1 0 -130z"/>
<path d="M600 1023 c-29 -11 -60 -47 -60 -68 0 -12 9 -34 21 -49 20 -25 24
-26 130 -26 96 0 111 2 129 20 25 25 26 71 1 101 -17 22 -28 24 -113 26 -51 1
-100 0 -108 -4z"/>
<path d="M565 645 c-14 -13 -25 -36 -25 -50 0 -14 11 -37 25 -50 22 -23 31
-25 123 -25 85 0 103 3 126 21 34 27 36 79 4 109 -19 17 -35 20 -125 20 -97 0
-106 -2 -128 -25z"/>
</g>
</svg>
